<svg id="Layer_1" data-name="Layer 1" xmlns="http://www.w3.org/2000/svg" viewBox="0 0 64.06 42.01"><defs><style>.cls-1{isolation:isolate;}</style></defs><g class="cls-1"><path d="M3.65,14.41h-2q-.11,1.13-.24,2.31T1.13,19H.22L2,3.07H3.34L5.17,19h-1Zm-.07-.79c-.09-.87-.18-1.73-.28-2.57S3.12,9.36,3,8.49A3.47,3.47,0,0,1,3,8a3.41,3.41,0,0,0-.05-.46c0-.32-.06-.61-.09-.85S2.77,6.25,2.75,6s0-.47-.08-.73,0-.53-.06-.86c0,.28,0,.56-.07.84s0,.56-.06.84-.06.82-.09,1.21-.07.78-.11,1.18c-.09.84-.19,1.69-.29,2.56s-.2,1.73-.29,2.57Z" transform="translate(-0.22 -2.99)"/><path d="M12.64,17.44a1,1,0,0,0,.19.62.9.9,0,0,0,.76.26,1.12,1.12,0,0,0,.75-.21.92.92,0,0,0,.25-.72V14.68a4.39,4.39,0,0,0-.11-1,7.7,7.7,0,0,0-.36-1L12.29,9.17a4.9,4.9,0,0,1-.42-1.11A4.13,4.13,0,0,1,11.71,7V4.69a1.58,1.58,0,0,1,.51-1.25A2,2,0,0,1,13.61,3a2.27,2.27,0,0,1,1.4.36,1.38,1.38,0,0,1,.46,1.16v2.9h-.93V4.6c0-.55-.29-.82-.86-.82A.81.81,0,0,0,13,4a.87.87,0,0,0-.22.6V7.1a3.56,3.56,0,0,0,.35,1.5L14,10.31c.31.58.6,1.16.9,1.74a6.92,6.92,0,0,1,.47,1.13,4.09,4.09,0,0,1,.19,1.28v3a1.67,1.67,0,0,1-.44,1.23,2.05,2.05,0,0,1-1.5.45,2.08,2.08,0,0,1-1.51-.45,1.83,1.83,0,0,1-.44-1.3V14.5h.93Z" transform="translate(-0.22 -2.99)"/><path d="M23.29,3.87H21.72v-.8h4.14v.8H24.29V19h-1Z" transform="translate(-0.22 -2.99)"/><path d="M35.18,3.07h1l-1.85,9.66V19h-1v-6.3c-.13-.72-.28-1.5-.44-2.33s-.33-1.67-.49-2.51L32,5.39c-.17-.82-.31-1.59-.45-2.32h1l1.35,8.2Z" transform="translate(-0.22 -2.99)"/></g><g class="cls-1"><path d="M.81,29h1v16h-1Zm.89,7.52L3.88,29h.93L2.62,36.47c.39,1.37.79,2.78,1.21,4.22s.82,2.85,1.2,4.22H4Z" transform="translate(-0.22 -2.99)"/><path d="M11.13,29h1v16h-1Z" transform="translate(-0.22 -2.99)"/><path d="M20,29.75H18.4V29h4.14v.8H21V44.91H20Z" transform="translate(-0.22 -2.99)"/><path d="M28.44,30.63a1.67,1.67,0,0,1,.51-1.3,2,2,0,0,1,1.43-.46,1.85,1.85,0,0,1,1.37.46,1.75,1.75,0,0,1,.47,1.3v2.68h-1V30.77A1.6,1.6,0,0,0,31,30a.65.65,0,0,0-.65-.33.92.92,0,0,0-.68.24.94.94,0,0,0-.25.67V43.3a.9.9,0,0,0,.25.66.92.92,0,0,0,.68.24.71.71,0,0,0,.65-.26,1.55,1.55,0,0,0,.17-.84V40.34h1v2.89a1.75,1.75,0,0,1-.47,1.3,1.85,1.85,0,0,1-1.37.47A2,2,0,0,1,29,44.53a1.67,1.67,0,0,1-.51-1.3Z" transform="translate(-0.22 -2.99)"/><path d="M39,29h1v7.36H42V29h1v16H42v-7.8H40v7.8H39Z" transform="translate(-0.22 -2.99)"/><path d="M50.07,29h3.14v.8H51.09v6.56h2v.8h-2v7h2.28v.8h-3.3Z" transform="translate(-0.22 -2.99)"/><path d="M59.91,29h1.46l1.48,10.28c.13,1.05.32,2.32.57,3.82,0-.88-.08-1.67-.11-2.36s0-1.22,0-1.59V29h1v16H62.83L61.3,34.77c-.06-.39-.13-1-.22-1.69s-.18-1.55-.29-2.4c0,.43,0,.83.05,1.21s0,.73,0,1,0,.6,0,.83,0,.4,0,.52V44.91h-1Z" transform="translate(-0.22 -2.99)"/></g></svg>