<svg id="Layer_1" data-name="Layer 1" xmlns="http://www.w3.org/2000/svg" viewBox="0 0 66.84 42.34"><defs><style>.cls-1{isolation:isolate;}</style></defs><g class="cls-1"><path d="M3.92,14.41h-2q-.1,1.13-.24,2.31T1.4,19H.49l1.77-16H3.61L5.44,19h-1Zm-.07-.79c-.09-.87-.18-1.73-.28-2.57S3.39,9.36,3.3,8.49A3.47,3.47,0,0,1,3.24,8a3.41,3.41,0,0,0-.05-.46c0-.32-.06-.61-.09-.85S3,6.25,3,6s0-.47-.08-.73,0-.53-.06-.86c0,.28,0,.56-.07.84s0,.56-.06.84-.06.82-.09,1.21-.07.78-.11,1.18c-.09.84-.19,1.69-.29,2.56s-.2,1.73-.29,2.57Z" transform="translate(-0.49 -2.99)"/><path d="M12.91,17.44a1,1,0,0,0,.19.62.9.9,0,0,0,.76.26,1.12,1.12,0,0,0,.75-.21.92.92,0,0,0,.25-.72V14.68a4.39,4.39,0,0,0-.11-1,7.7,7.7,0,0,0-.36-1L12.56,9.17a4.9,4.9,0,0,1-.42-1.11A4.13,4.13,0,0,1,12,7V4.69a1.58,1.58,0,0,1,.51-1.25A2,2,0,0,1,13.88,3a2.27,2.27,0,0,1,1.4.36,1.38,1.38,0,0,1,.46,1.16v2.9h-.93V4.6c0-.55-.29-.82-.86-.82a.81.81,0,0,0-.66.26.87.87,0,0,0-.22.6V7.1a3.56,3.56,0,0,0,.35,1.5l.89,1.71c.31.58.6,1.16.9,1.74a6.92,6.92,0,0,1,.47,1.13,4.09,4.09,0,0,1,.19,1.28v3a1.67,1.67,0,0,1-.44,1.23,2.05,2.05,0,0,1-1.5.45,2.08,2.08,0,0,1-1.51-.45,1.83,1.83,0,0,1-.44-1.3V14.5h.93Z" transform="translate(-0.49 -2.99)"/><path d="M23.56,3.87H22v-.8h4.14v.8H24.56V19h-1Z" transform="translate(-0.49 -2.99)"/><path d="M35.45,3.07h1l-1.85,9.66V19h-1v-6.3c-.13-.72-.28-1.5-.44-2.33s-.33-1.67-.49-2.51l-.48-2.5c-.17-.82-.31-1.59-.45-2.32h1l1.35,8.2Z" transform="translate(-0.49 -2.99)"/></g><g class="cls-1"><g class="cls-1"><path d="M.66,29.28h2c1.25,0,1.87.53,1.87,1.57V36a1.47,1.47,0,0,1-.47,1.15,2,2,0,0,1-1.4.45h-1v7.62h-1Zm1.9,7.54a1.09,1.09,0,0,0,.72-.22.79.79,0,0,0,.28-.66V31a.85.85,0,0,0-.27-.69,1.08,1.08,0,0,0-.73-.22H1.68v6.74Z" transform="translate(-0.49 -2.99)"/></g><g class="cls-1"><path d="M14.19,40.62h-2q-.11,1.13-.24,2.31t-.24,2.31h-.91l1.77-16h1.35l1.83,16h-1Zm-.07-.79c-.09-.87-.18-1.73-.28-2.57s-.18-1.69-.27-2.56a3.47,3.47,0,0,1-.06-.45,3.41,3.41,0,0,0,0-.46c0-.32-.06-.61-.09-.85s-.06-.48-.08-.72,0-.47-.08-.73-.05-.53-.06-.86c0,.28-.05.56-.07.84s0,.56-.06.84-.06.82-.09,1.21-.07.78-.11,1.18c-.09.84-.19,1.69-.29,2.56s-.2,1.73-.29,2.57Z" transform="translate(-0.49 -2.99)"/><path d="M22.34,29.28h2a2.26,2.26,0,0,1,1.36.38,1.31,1.31,0,0,1,.52,1.15v4.68a2.13,2.13,0,0,1-.2,1,1.21,1.21,0,0,1-.86.58,1.52,1.52,0,0,1,.75.49,1.41,1.41,0,0,1,.31,1v6.72h-1V38.52a1.2,1.2,0,0,0-.26-.75,1,1,0,0,0-.87-.33h-.75v7.8h-1Zm1.81,7.36c.73,0,1.09-.32,1.09-1V31c0-.61-.34-.91-1-.91h-.88v6.56Z" transform="translate(-0.49 -2.99)"/><path d="M33.41,29.28h1v16h-1Zm.89,7.52,2.18-7.52h.93L35.23,36.8c.38,1.37.78,2.78,1.2,4.22s.82,2.85,1.2,4.22h-1Z" transform="translate(-0.49 -2.99)"/><path d="M43.73,29.28h1v16h-1Z" transform="translate(-0.49 -2.99)"/><path d="M51.89,29.28h1.46l1.48,10.28c.13,1,.32,2.32.57,3.82,0-.88-.08-1.67-.11-2.36s0-1.22,0-1.59V29.28h1v16H54.81L53.28,35.1c-.06-.39-.13-1-.22-1.69s-.18-1.55-.29-2.4c0,.43,0,.83,0,1.21s0,.73,0,1,0,.6,0,.83,0,.4,0,.52V45.24h-1Z" transform="translate(-0.49 -2.99)"/><path d="M65.44,37.48h1.9V44.8l-.2.15a2.49,2.49,0,0,1-.7.27,4.88,4.88,0,0,1-1.09.11,2.11,2.11,0,0,1-1.47-.47,1.64,1.64,0,0,1-.52-1.3V31a1.64,1.64,0,0,1,.52-1.3,2.59,2.59,0,0,1,2.95,0,1.67,1.67,0,0,1,.51,1.3v2.63h-1V31.07a1.08,1.08,0,0,0-.28-.78.89.89,0,0,0-.69-.3.92.92,0,0,0-.69.3,1.08,1.08,0,0,0-.28.78V43.63a.81.81,0,0,0,.28.66,1,1,0,0,0,.69.24,2.32,2.32,0,0,0,.55-.06,2,2,0,0,0,.42-.18v-6h-.88Z" transform="translate(-0.49 -2.99)"/></g></g></svg>