<svg id="Layer_1" data-name="Layer 1" xmlns="http://www.w3.org/2000/svg" viewBox="0 0 71.27 42.01"><defs><style>.cls-1{isolation:isolate;}</style></defs><g class="cls-1"><path d="M3.65,14.41h-2q-.11,1.13-.24,2.31T1.13,19H.22L2,3.07H3.34L5.17,19h-1Zm-.07-.79c-.09-.87-.18-1.73-.28-2.57S3.12,9.36,3,8.49A3.47,3.47,0,0,1,3,8a3.41,3.41,0,0,0-.05-.46c0-.32-.06-.61-.09-.85S2.77,6.25,2.75,6s0-.47-.08-.73,0-.53-.06-.86c0,.28,0,.56-.07.84s0,.56-.06.84-.06.82-.09,1.21-.07.78-.11,1.18c-.09.84-.19,1.69-.29,2.56s-.2,1.73-.29,2.57Z" transform="translate(-0.22 -2.99)"/><path d="M12.64,17.44a1,1,0,0,0,.19.62.9.9,0,0,0,.76.26,1.12,1.12,0,0,0,.75-.21.92.92,0,0,0,.25-.72V14.68a4.39,4.39,0,0,0-.11-1,7.7,7.7,0,0,0-.36-1L12.29,9.17a4.9,4.9,0,0,1-.42-1.11A4.13,4.13,0,0,1,11.71,7V4.69a1.58,1.58,0,0,1,.51-1.25A2,2,0,0,1,13.61,3a2.27,2.27,0,0,1,1.4.36,1.38,1.38,0,0,1,.46,1.16v2.9h-.93V4.6c0-.55-.29-.82-.86-.82A.81.81,0,0,0,13,4a.87.87,0,0,0-.22.6V7.1a3.56,3.56,0,0,0,.35,1.5L14,10.31c.31.58.6,1.16.9,1.74a6.92,6.92,0,0,1,.47,1.13,4.09,4.09,0,0,1,.19,1.28v3a1.67,1.67,0,0,1-.44,1.23,2.05,2.05,0,0,1-1.5.45,2.08,2.08,0,0,1-1.51-.45,1.83,1.83,0,0,1-.44-1.3V14.5h.93Z" transform="translate(-0.22 -2.99)"/><path d="M23.29,3.87H21.72v-.8h4.14v.8H24.29V19h-1Z" transform="translate(-0.22 -2.99)"/><path d="M35.18,3.07h1l-1.85,9.66V19h-1v-6.3c-.13-.72-.28-1.5-.44-2.33s-.33-1.67-.49-2.51L32,5.39c-.17-.82-.31-1.59-.45-2.32h1l1.35,8.2Z" transform="translate(-0.22 -2.99)"/></g><g class="cls-1"><g class="cls-1"><path d="M2.89,37.15h1.9v7.32l-.2.15a2.3,2.3,0,0,1-.69.27A5,5,0,0,1,2.8,45a2.14,2.14,0,0,1-1.47-.47,1.67,1.67,0,0,1-.52-1.3V30.63a1.67,1.67,0,0,1,.52-1.3,2.14,2.14,0,0,1,1.47-.46,2.12,2.12,0,0,1,1.48.46,1.67,1.67,0,0,1,.51,1.3v2.63h-1V30.74A1.12,1.12,0,0,0,3.5,30a.92.92,0,0,0-.7-.3.91.91,0,0,0-.68.3,1.09,1.09,0,0,0-.29.78V43.3a.82.82,0,0,0,.29.66,1,1,0,0,0,.68.24,2.26,2.26,0,0,0,.55-.06A1.65,1.65,0,0,0,3.77,44V38H2.89Z" transform="translate(-0.22 -2.99)"/><path d="M14.78,29h1L14,38.61v6.3H13v-6.3c-.13-.72-.28-1.5-.44-2.33s-.33-1.67-.49-2.51-.32-1.67-.49-2.5-.31-1.59-.44-2.32h1l1.35,8.2Z" transform="translate(-0.22 -2.99)"/><path d="M22.21,29H23.8l.95,9.59c0,.42.08.79.12,1.13s.07.68.1,1,.05.69.08,1.06,0,.8.07,1.28c.05-.75.1-1.53.16-2.34s.12-1.53.2-2.15c.16-1.53.33-3.12.5-4.78s.35-3.26.51-4.81h1.57v16h-1V35c0-.25,0-.5,0-.75s0-.52,0-.82,0-.62,0-1,0-.8,0-1.28c0,.26-.06.54-.09.82s-.06.56-.09.81c-.05.56-.11,1.11-.16,1.66s-.1,1-.14,1.46c-.14,1.43-.28,2.93-.45,4.49s-.31,3.07-.44,4.48H24.53L23.62,36c0-.15,0-.31,0-.49s0-.37-.07-.58c-.05-.39-.08-.74-.11-1s-.06-.58-.09-.85l-.09-.83c0-.28-.06-.6-.09-.95,0,.39,0,.77,0,1.13s0,.71,0,1,0,.57,0,.87V44.91h-1Z" transform="translate(-0.22 -2.99)"/><path d="M38.8,43.52c0-.1,0-.2-.07-.29s0-.18-.08-.26a3.22,3.22,0,0,1-.09.76,1.84,1.84,0,0,1-.3.65,1.47,1.47,0,0,1-.56.45,2.17,2.17,0,0,1-.91.17,1.42,1.42,0,0,1-1.39-.7A4.59,4.59,0,0,1,35,42.19V39.36c0-.42,0-.79.08-1.1a3.44,3.44,0,0,1,.21-.84c.12-.28.26-.57.42-.88s.3-.59.42-.87l-.6-1.9a7.38,7.38,0,0,1-.24-2V30.54a1.89,1.89,0,0,1,.35-1.12,1.35,1.35,0,0,1,1.18-.49,1.45,1.45,0,0,1,1.12.41,1.49,1.49,0,0,1,.38,1.05v1.48a6.24,6.24,0,0,1-.07,1,4.18,4.18,0,0,1-.22.91l-1,2.1.51,1.57c.18.53.35,1,.51,1.57a3.1,3.1,0,0,1,.14.47c0,.16.07.32.1.48V35.61h.78V38.9c0,.25,0,.51,0,.77s0,.53,0,.78l0,.5c0,.17,0,.34,0,.51.16.53.33,1.11.52,1.73s.36,1.19.52,1.72h-.8Zm-2.87-1.11a3.12,3.12,0,0,0,.22,1.34.78.78,0,0,0,.75.45.9.9,0,0,0,.89-.56A3.3,3.3,0,0,0,38,42.35v-.51c-.25-.84-.51-1.69-.76-2.54s-.52-1.71-.77-2.55a1.62,1.62,0,0,1-.12.26l-.12.25a6,6,0,0,0-.25.91,4.57,4.57,0,0,0-.08.86ZM37.41,30.5a1,1,0,0,0-.15-.57.52.52,0,0,0-.45-.22.48.48,0,0,0-.42.23.93.93,0,0,0-.15.52v2c0,.19,0,.39,0,.59a2.75,2.75,0,0,0,.15.65l.31,1c.07-.18.14-.33.19-.46s.13-.29.2-.47a2.4,2.4,0,0,0,.23-.79,5.34,5.34,0,0,0,.06-.73Z" transform="translate(-0.22 -2.99)"/><path d="M46.94,43.32a1.1,1.1,0,0,0,.18.62.92.92,0,0,0,.77.26,1.16,1.16,0,0,0,.75-.21.92.92,0,0,0,.24-.72V40.56a4.39,4.39,0,0,0-.11-1.05,6.29,6.29,0,0,0-.35-1l-1.84-3.47a5.43,5.43,0,0,1-.42-1.11,4.55,4.55,0,0,1-.15-1V30.57a1.58,1.58,0,0,1,.51-1.25,2,2,0,0,1,1.39-.45,2.24,2.24,0,0,1,1.39.36,1.38,1.38,0,0,1,.46,1.16v2.9h-.92V30.48c0-.55-.29-.82-.87-.82a.84.84,0,0,0-.66.26.86.86,0,0,0-.22.6V33a3.71,3.71,0,0,0,.35,1.5q.45.84.9,1.71c.3.58.6,1.16.89,1.74a7.52,7.52,0,0,1,.48,1.13,4.4,4.4,0,0,1,.19,1.28v3a1.73,1.73,0,0,1-.44,1.23A2.08,2.08,0,0,1,48,45a2.05,2.05,0,0,1-1.5-.45,1.78,1.78,0,0,1-.44-1.3V40.38h.93Z" transform="translate(-0.22 -2.99)"/></g><g class="cls-1"><path d="M56.57,29h2c1.25,0,1.87.53,1.87,1.57v5.17A1.47,1.47,0,0,1,60,36.84a2,2,0,0,1-1.4.45h-1v7.62h-1Zm1.9,7.54a1.09,1.09,0,0,0,.72-.22.79.79,0,0,0,.28-.66V30.66A.85.85,0,0,0,59.2,30a1.08,1.08,0,0,0-.73-.22h-.88v6.74Z" transform="translate(-0.22 -2.99)"/></g><g class="cls-1"><path d="M70,40.29h-2q-.11,1.13-.24,2.31t-.24,2.31h-.91l1.77-16h1.35l1.83,16h-1Zm-.07-.79c-.09-.87-.18-1.73-.28-2.57s-.18-1.69-.27-2.56a3.47,3.47,0,0,1-.06-.45,2.31,2.31,0,0,0-.05-.46c0-.32-.06-.61-.09-.85s-.06-.48-.08-.72,0-.47-.08-.73,0-.53-.06-.86c0,.28-.05.56-.07.84s0,.56-.07.84-.05.82-.08,1.21-.07.78-.11,1.18c-.09.84-.19,1.69-.29,2.56s-.2,1.73-.29,2.57Z" transform="translate(-0.22 -2.99)"/></g></g></svg>