<svg id="Layer_1" data-name="Layer 1" xmlns="http://www.w3.org/2000/svg" viewBox="0 0 168.45 42.34"><defs><style>.cls-1{isolation:isolate;}</style></defs><g class="cls-1"><path d="M3.92,14.41h-2q-.1,1.13-.24,2.31T1.4,19H.49l1.77-16H3.61L5.44,19h-1Zm-.07-.79c-.09-.87-.18-1.73-.28-2.57S3.39,9.36,3.3,8.49A3.47,3.47,0,0,1,3.24,8a3.41,3.41,0,0,0-.05-.46c0-.32-.06-.61-.09-.85S3,6.25,3,6s0-.47-.08-.73,0-.53-.06-.86c0,.28,0,.56-.07.84s0,.56-.06.84-.06.82-.09,1.21-.07.78-.11,1.18c-.09.84-.19,1.69-.29,2.56s-.2,1.73-.29,2.57Z" transform="translate(-0.35 -2.99)"/><path d="M12.91,17.44a1,1,0,0,0,.19.62.9.9,0,0,0,.76.26,1.12,1.12,0,0,0,.75-.21.92.92,0,0,0,.25-.72V14.68a4.39,4.39,0,0,0-.11-1,7.7,7.7,0,0,0-.36-1L12.56,9.17a4.9,4.9,0,0,1-.42-1.11A4.13,4.13,0,0,1,12,7V4.69a1.58,1.58,0,0,1,.51-1.25A2,2,0,0,1,13.88,3a2.27,2.27,0,0,1,1.4.36,1.38,1.38,0,0,1,.46,1.16v2.9h-.93V4.6c0-.55-.29-.82-.86-.82a.81.81,0,0,0-.66.26.87.87,0,0,0-.22.6V7.1a3.56,3.56,0,0,0,.35,1.5l.89,1.71c.31.58.6,1.16.9,1.74a6.92,6.92,0,0,1,.47,1.13,4.09,4.09,0,0,1,.19,1.28v3a1.67,1.67,0,0,1-.44,1.23,2.05,2.05,0,0,1-1.5.45,2.08,2.08,0,0,1-1.51-.45,1.83,1.83,0,0,1-.44-1.3V14.5h.93Z" transform="translate(-0.35 -2.99)"/><path d="M23.56,3.87H22v-.8h4.14v.8H24.56V19h-1Z" transform="translate(-0.35 -2.99)"/><path d="M35.45,3.07h1l-1.85,9.66V19h-1v-6.3c-.13-.72-.28-1.5-.44-2.33s-.33-1.67-.49-2.51l-.48-2.5c-.17-.82-.31-1.59-.45-2.32h1l1.35,8.2Z" transform="translate(-0.35 -2.99)"/></g><g class="cls-1"><path d="M.35,31a1.67,1.67,0,0,1,.51-1.3A2.06,2.06,0,0,1,2.3,29.2a1.86,1.86,0,0,1,1.37.46A1.75,1.75,0,0,1,4.13,31v2.68h-1V31.1A1.73,1.73,0,0,0,3,30.32.66.66,0,0,0,2.3,30a1,1,0,0,0-.69.24.93.93,0,0,0-.24.67V43.63a.89.89,0,0,0,.24.66,1,1,0,0,0,.69.24A.72.72,0,0,0,3,44.27a1.65,1.65,0,0,0,.17-.84V40.67h1v2.89a1.75,1.75,0,0,1-.46,1.3,1.86,1.86,0,0,1-1.37.47,2.06,2.06,0,0,1-1.44-.47,1.67,1.67,0,0,1-.51-1.3Z" transform="translate(-0.35 -2.99)"/><path d="M15.12,43.56a1.67,1.67,0,0,1-.51,1.3,2.12,2.12,0,0,1-1.48.47,2.11,2.11,0,0,1-1.47-.47,1.64,1.64,0,0,1-.52-1.3V31a1.64,1.64,0,0,1,.52-1.3,2.11,2.11,0,0,1,1.47-.46,2.12,2.12,0,0,1,1.48.46,1.67,1.67,0,0,1,.51,1.3ZM14.1,31a.91.91,0,0,0-1-1,1,1,0,0,0-.71.26,1,1,0,0,0-.27.74V43.54a.9.9,0,0,0,1,1,1,1,0,0,0,.7-.25,1,1,0,0,0,.27-.74Z" transform="translate(-0.35 -2.99)"/><path d="M22.43,29.28h1.46l1.48,10.28c.13,1,.32,2.32.57,3.82,0-.88-.08-1.67-.11-2.36s0-1.22,0-1.59V29.28h1v16H25.35L23.82,35.1c-.06-.39-.13-1-.22-1.69s-.18-1.55-.29-2.4c0,.43,0,.83.05,1.21s0,.73,0,1,0,.6,0,.83,0,.4,0,.52V45.24h-1Z" transform="translate(-0.35 -2.99)"/><path d="M33.81,31a1.67,1.67,0,0,1,.51-1.3,2.06,2.06,0,0,1,1.44-.46,1.86,1.86,0,0,1,1.37.46,1.75,1.75,0,0,1,.46,1.3v2.68h-1V31.1a1.73,1.73,0,0,0-.17-.78.66.66,0,0,0-.65-.33.84.84,0,0,0-.93.91V43.63a.89.89,0,0,0,.24.66.93.93,0,0,0,.69.24.72.72,0,0,0,.65-.26,1.65,1.65,0,0,0,.17-.84V40.67h1v2.89a1.75,1.75,0,0,1-.46,1.3,1.86,1.86,0,0,1-1.37.47,2.06,2.06,0,0,1-1.44-.47,1.67,1.67,0,0,1-.51-1.3Z" transform="translate(-0.35 -2.99)"/><path d="M44.66,29.28h1v16h-1Z" transform="translate(-0.35 -2.99)"/><path d="M53,29.28h3.14v.8H54.06v6.56h2v.8h-2v7h2.27v.8H53Z" transform="translate(-0.35 -2.99)"/><path d="M63.09,29.28h2a2.28,2.28,0,0,1,1.36.38A1.34,1.34,0,0,1,67,30.81v4.68a2.27,2.27,0,0,1-.2,1,1.24,1.24,0,0,1-.86.58,1.61,1.61,0,0,1,.75.49,1.46,1.46,0,0,1,.31,1v6.72H66V38.52a1.25,1.25,0,0,0-.25-.75,1.06,1.06,0,0,0-.88-.33h-.75v7.8h-1Zm1.82,7.36c.72,0,1.08-.32,1.08-1V31c0-.61-.33-.91-1-.91h-.89v6.56Z" transform="translate(-0.35 -2.99)"/><path d="M76.46,37.48h1.91V44.8l-.2.15a2.49,2.49,0,0,1-.7.27,4.88,4.88,0,0,1-1.09.11,2.11,2.11,0,0,1-1.47-.47,1.64,1.64,0,0,1-.52-1.3V31a1.64,1.64,0,0,1,.52-1.3,2.11,2.11,0,0,1,1.47-.46,2.13,2.13,0,0,1,1.48.46,1.67,1.67,0,0,1,.51,1.3v2.63h-1V31.07a1.08,1.08,0,0,0-.28-.78.89.89,0,0,0-.69-.3.92.92,0,0,0-.69.3,1.09,1.09,0,0,0-.29.78V43.63a.82.82,0,0,0,.29.66,1,1,0,0,0,.69.24,2.32,2.32,0,0,0,.55-.06,2,2,0,0,0,.42-.18v-6h-.89Z" transform="translate(-0.35 -2.99)"/><path d="M85.68,29.28h3.14v.8H86.7v6.56h2v.8h-2v7H89v.8H85.68Z" transform="translate(-0.35 -2.99)"/><path d="M104.8,43.65a1,1,0,0,0,.19.62.89.89,0,0,0,.76.26,1.12,1.12,0,0,0,.75-.21.92.92,0,0,0,.24-.72V40.89a3.93,3.93,0,0,0-.11-1,6.29,6.29,0,0,0-.35-1l-1.84-3.47a6.08,6.08,0,0,1-.42-1.11,4.55,4.55,0,0,1-.15-1.05V30.9a1.58,1.58,0,0,1,.51-1.25,2,2,0,0,1,1.39-.45,2.24,2.24,0,0,1,1.39.36,1.38,1.38,0,0,1,.47,1.16v2.9h-.93V30.81c0-.55-.29-.82-.86-.82a.84.84,0,0,0-.67.26.92.92,0,0,0-.22.6v2.46a3.58,3.58,0,0,0,.36,1.5l.89,1.71.9,1.74a6.57,6.57,0,0,1,.47,1.13,4.09,4.09,0,0,1,.19,1.28v3a1.71,1.71,0,0,1-.44,1.23,2.74,2.74,0,0,1-3,0,1.83,1.83,0,0,1-.44-1.3V40.71h.93Z" transform="translate(-0.35 -2.99)"/><path d="M114.76,29.28h3.14v.8h-2.12v6.56h2v.8h-2v7h2.28v.8h-3.3Z" transform="translate(-0.35 -2.99)"/><path d="M124.82,29.28h2a2.26,2.26,0,0,1,1.36.38,1.31,1.31,0,0,1,.52,1.15v4.68a2.13,2.13,0,0,1-.2,1,1.21,1.21,0,0,1-.86.58,1.61,1.61,0,0,1,.75.49,1.41,1.41,0,0,1,.31,1v6.72h-1V38.52a1.19,1.19,0,0,0-.25-.75,1,1,0,0,0-.87-.33h-.75v7.8h-1Zm1.81,7.36c.72,0,1.08-.32,1.08-1V31c0-.61-.33-.91-1-.91h-.88v6.56Z" transform="translate(-0.35 -2.99)"/><path d="M135.32,29.28h1l1.06,10.5c.05.49.09,1,.13,1.43s.07.93.1,1.4.07.93.13,1.37c0-.34.05-.68.08-1s0-.69.07-1,0-.69.06-1.06,0-.73.08-1.08l1-10.5h1l-1.73,16H137Z" transform="translate(-0.35 -2.99)"/><path d="M146.65,29.28h1v16h-1Z" transform="translate(-0.35 -2.99)"/><path d="M154.72,31a1.67,1.67,0,0,1,.51-1.3,2.06,2.06,0,0,1,1.44-.46,1.86,1.86,0,0,1,1.37.46,1.75,1.75,0,0,1,.46,1.3v2.68h-1V31.1a1.73,1.73,0,0,0-.16-.78.66.66,0,0,0-.65-.33.84.84,0,0,0-.93.91V43.63a.89.89,0,0,0,.24.66.93.93,0,0,0,.69.24.72.72,0,0,0,.65-.26,1.66,1.66,0,0,0,.16-.84V40.67h1v2.89a1.75,1.75,0,0,1-.46,1.3,1.86,1.86,0,0,1-1.37.47,2.06,2.06,0,0,1-1.44-.47,1.67,1.67,0,0,1-.51-1.3Z" transform="translate(-0.35 -2.99)"/><path d="M165.51,29.28h3.13v.8h-2.12v6.56h2v.8h-2v7h2.28v.8h-3.29Z" transform="translate(-0.35 -2.99)"/></g></svg>